<svg xmlns="http://www.w3.org/2000/svg" viewBox="0 0 64 64">
  <defs>
    <linearGradient id="chip" x1="0" y1="0" x2="0" y2="1">
      <stop offset="0" stop-color="#A3BC97"/>
      <stop offset="1" stop-color="#566B4F"/>
    </linearGradient>
    <radialGradient id="hl" cx="30%" cy="20%" r="70%">
      <stop offset="0" stop-color="#ffffff" stop-opacity="0.4"/>
      <stop offset="1" stop-color="#ffffff" stop-opacity="0"/>
    </radialGradient>
    <linearGradient id="det" x1="0" y1="0" x2="1" y2="1">
      <stop offset="0" stop-color="#c3d9b6"/>
      <stop offset="1" stop-color="#8ba57c"/>
    </linearGradient>
    <filter id="shadow" x="-40%" y="-40%" width="180%" height="180%">
      <feDropShadow dx="0" dy="1.5" stdDeviation="1.4" flood-color="#28351f" flood-opacity="0.4"/>
    </filter>
  </defs>

  <rect x="3" y="3" width="58" height="58" rx="14" fill="url(#chip)" stroke="#28351f" stroke-width="1.5"/>
  <rect x="3" y="3" width="58" height="58" rx="14" fill="url(#hl)"/>

  <g filter="url(#shadow)">
    <path d="M22 20 h14 v-4 h-14 z" fill="#8a8f98" stroke="#3a3d42" stroke-width="1"/>
    <path d="M18 20 h22 c2 0 3 1 3 3 v26 c0 3 -2 5 -5 5 h-18 c-3 0 -5 -2 -5 -5 v-26 c0 -2 1 -3 3 -3 z" fill="url(#det)" stroke="#3a3d42" stroke-width="1.3"/>
    <rect x="21" y="30" width="16" height="12" rx="1" fill="#ffffff" opacity="0.55"/>
    <rect x="24" y="10" width="8" height="6" rx="2" fill="#e7e9eb" stroke="#3a3d42" stroke-width="1"/>
  </g>
</svg>
