<svg xmlns="http://www.w3.org/2000/svg" viewBox="0 0 64 64">
  <defs>
    <linearGradient id="chip" x1="0" y1="0" x2="0" y2="1">
      <stop offset="0" stop-color="#7478C4"/>
      <stop offset="1" stop-color="#2E3170"/>
    </linearGradient>
    <radialGradient id="hl" cx="30%" cy="20%" r="70%">
      <stop offset="0" stop-color="#ffffff" stop-opacity="0.4"/>
      <stop offset="1" stop-color="#ffffff" stop-opacity="0"/>
    </radialGradient>
    <linearGradient id="body" x1="0" y1="0" x2="1" y2="1">
      <stop offset="0" stop-color="#f6f7f8"/>
      <stop offset="1" stop-color="#c7ccd1"/>
    </linearGradient>
    <filter id="shadow" x="-40%" y="-40%" width="180%" height="180%">
      <feDropShadow dx="0" dy="1.5" stdDeviation="1.4" flood-color="#1a1c3f" flood-opacity="0.4"/>
    </filter>
  </defs>

  <rect x="3" y="3" width="58" height="58" rx="14" fill="url(#chip)" stroke="#1a1c3f" stroke-width="1.5"/>
  <rect x="3" y="3" width="58" height="58" rx="14" fill="url(#hl)"/>

  <g filter="url(#shadow)">
    <line x1="12" y1="20" x2="52" y2="20" stroke="url(#body)" stroke-width="3" stroke-linecap="round"/>
    <path d="M18 20 v6 l-4 4 M18 20 v6 l4 4" stroke="#8a8f98" stroke-width="1.4" fill="none"/>
    <path d="M32 20 v6 l-4 4 M32 20 v6 l4 4" stroke="#8a8f98" stroke-width="1.4" fill="none"/>
    <path d="M46 20 v6 l-4 4 M46 20 v6 l4 4" stroke="#8a8f98" stroke-width="1.4" fill="none"/>
    <line x1="14" y1="14" x2="14" y2="20" stroke="#3a3d42" stroke-width="2"/>
    <line x1="50" y1="14" x2="50" y2="20" stroke="#3a3d42" stroke-width="2"/>
  </g>
</svg>
