<svg xmlns="http://www.w3.org/2000/svg" viewBox="0 0 64 64">
  <defs>
    <linearGradient id="chip" x1="0" y1="0" x2="0" y2="1">
      <stop offset="0" stop-color="#CB93B4"/>
      <stop offset="1" stop-color="#7A4468"/>
    </linearGradient>
    <radialGradient id="hl" cx="30%" cy="20%" r="70%">
      <stop offset="0" stop-color="#ffffff" stop-opacity="0.4"/>
      <stop offset="1" stop-color="#ffffff" stop-opacity="0"/>
    </radialGradient>
    <linearGradient id="body" x1="0" y1="0" x2="1" y2="1">
      <stop offset="0" stop-color="#f6f7f8"/>
      <stop offset="1" stop-color="#c7ccd1"/>
    </linearGradient>
    <filter id="shadow" x="-40%" y="-40%" width="180%" height="180%">
      <feDropShadow dx="0" dy="1.5" stdDeviation="1.4" flood-color="#472339" flood-opacity="0.4"/>
    </filter>
  </defs>

  <rect x="3" y="3" width="58" height="58" rx="14" fill="url(#chip)" stroke="#472339" stroke-width="1.5"/>
  <rect x="3" y="3" width="58" height="58" rx="14" fill="url(#hl)"/>

  <g filter="url(#shadow)">
    <path d="M27 11 c3 0 3.6 2.4 2.6 4.6 c1.6 2.4 2.4 6.2 1.6 10 c1.6 3 1.6 7 0.8 10 h-9.6 c-0.8 -3 -0.8 -7 0.8 -10 c-0.8 -3.8 0 -7.6 1.6 -10 c-1 -2.2 -0.4 -4.6 2.6 -4.6 z" fill="#f4f5f6" stroke="#3a3d42" stroke-width="1.1"/>
    <rect x="21.5" y="27.5" width="11" height="2" fill="#C94E2C"/>
    <rect x="21.5" y="31.5" width="11" height="1.6" fill="#C94E2C"/>
    <circle cx="45" cy="46" r="9" fill="url(#body)" stroke="#3a3d42" stroke-width="1.2"/>
    <circle cx="42" cy="41" r="1.1" fill="#3a3d42"/>
    <circle cx="46" cy="40" r="1.1" fill="#3a3d42"/>
    <circle cx="44" cy="44" r="1.1" fill="#3a3d42"/>
  </g>
</svg>
