<svg xmlns="http://www.w3.org/2000/svg" viewBox="0 0 64 64">
  <defs>
    <linearGradient id="chip" x1="0" y1="0" x2="0" y2="1">
      <stop offset="0" stop-color="#F0AD84"/>
      <stop offset="1" stop-color="#A85830"/>
    </linearGradient>
    <radialGradient id="hl" cx="30%" cy="20%" r="70%">
      <stop offset="0" stop-color="#ffffff" stop-opacity="0.4"/>
      <stop offset="1" stop-color="#ffffff" stop-opacity="0"/>
    </radialGradient>
    <linearGradient id="body" x1="0" y1="0" x2="0" y2="1">
      <stop offset="0" stop-color="#3a3d42"/>
      <stop offset="1" stop-color="#1c1e21"/>
    </linearGradient>
    <filter id="shadow" x="-40%" y="-40%" width="180%" height="180%">
      <feDropShadow dx="0" dy="1.5" stdDeviation="1.4" flood-color="#5c2c14" flood-opacity="0.4"/>
    </filter>
  </defs>

  <rect x="3" y="3" width="58" height="58" rx="14" fill="url(#chip)" stroke="#5c2c14" stroke-width="1.5"/>
  <rect x="3" y="3" width="58" height="58" rx="14" fill="url(#hl)"/>

  <g filter="url(#shadow)">
    <circle cx="17" cy="46" r="7.5" fill="none" stroke="url(#body)" stroke-width="2.6"/>
    <circle cx="45" cy="46" r="7.5" fill="none" stroke="url(#body)" stroke-width="2.6"/>
    <path d="M17 46 L27 30 L36 30 L45 46" fill="none" stroke="#3a3d42" stroke-width="2" stroke-linecap="round" stroke-linejoin="round"/>
    <path d="M23 30 C23 25 26 22 30 22 L37 22" fill="none" stroke="#3a3d42" stroke-width="2" stroke-linecap="round"/>
    <rect x="22" y="33" width="14" height="8" rx="1.5" fill="#A85830" stroke="#5c2c14" stroke-width="1.1"/>
    <rect x="24" y="35" width="10" height="1.6" fill="#F0AD84" opacity="0.8"/>
    <rect x="24" y="37.5" width="10" height="1.6" fill="#F0AD84" opacity="0.8"/>
    <path d="M37 22 L41 18" stroke="#3a3d42" stroke-width="1.8" stroke-linecap="round"/>
    <ellipse cx="28" cy="26" rx="7" ry="2.6" fill="#e8ecef" stroke="#3a3d42" stroke-width="1"/>
  </g>
</svg>
